<?xml version="1.0" encoding="UTF-8"?><svg id="uuid-ad5d7d0f-256c-4b89-9607-6f6d2ea09975" xmlns="http://www.w3.org/2000/svg" viewBox="0 0 767.21 152.62"><path d="M6.69,19.31h36.42c23.93,0,34.36,12.48,34.36,30.11,0,12.74-5.53,23.03-18.02,27.54l18.92,32.43h-19.04l-17.11-29.98h-16.21v29.98H6.69V19.31ZM57.65,49.42c0-8.11-4.63-13.38-15.18-13.38h-16.47v26.64h16.47c10.55,0,15.18-5.28,15.18-13.25Z"/><path d="M84.67,75.8c0-24.96,15.83-34.61,33.58-34.61s31.78,9.01,31.78,34.36c0,2.44-.13,3.73-.39,5.15h-47.1c1.03,11.19,6.82,15.7,16.08,15.7,8.62,0,12.35-3.47,13.9-8.88h16.6c-3.35,15.31-15.18,23.16-30.75,23.16-16.99,0-33.71-9.39-33.71-34.87ZM132.28,69.62c-.26-7.72-4.25-14.15-14.54-14.15-8.75,0-13.9,4.89-15.18,14.15h29.72Z"/><path d="M156.35,19.31h20.2l24.19,70.39h1.16l24.19-70.39h20.2l-32.56,90.07h-24.83l-32.56-90.07Z"/><path d="M254.92,24.32c0-5.92,4.89-10.42,10.29-10.42s10.29,4.5,10.29,10.42-4.89,10.29-10.29,10.29-10.29-4.5-10.29-10.29ZM255.82,42.47h18.79v66.91h-18.79V42.47Z"/><path d="M284.78,75.8c0-24.96,15.83-34.61,33.58-34.61s31.78,9.01,31.78,34.36c0,2.44-.13,3.73-.39,5.15h-47.1c1.03,11.19,6.82,15.7,16.08,15.7,8.62,0,12.35-3.47,13.9-8.88h16.6c-3.35,15.31-15.18,23.16-30.75,23.16-16.99,0-33.71-9.39-33.71-34.87ZM332.39,69.62c-.26-7.72-4.25-14.15-14.54-14.15-8.75,0-13.9,4.89-15.18,14.15h29.72Z"/><path d="M353.24,42.47h17.76l11.45,48.77h.51l13.25-48.77h16.21l13.25,48.77h.51l11.45-48.77h17.76l-17.89,66.91h-20.97l-12.22-41.95-12.1,41.95h-21.1l-17.89-66.91Z"/><path d="M464.29,19.31h36.42c23.93,0,34.36,12.48,34.36,30.11s-10.42,29.98-34.36,29.98h-17.11v29.98h-19.3V19.31ZM515.25,49.42c0-8.11-4.63-13.38-15.18-13.38h-16.47v26.64h16.47c10.55,0,15.18-5.28,15.18-13.25Z"/><path d="M539.44,75.92c0-24.32,16.73-34.74,33.58-34.74s33.58,10.42,33.58,34.74-16.73,34.74-33.58,34.74-33.58-10.42-33.58-34.74ZM588.98,75.92c0-13.25-6.95-19.17-15.96-19.17s-15.96,5.92-15.96,19.17,6.95,19.17,15.96,19.17,15.96-5.92,15.96-19.17Z"/><path d="M615.88,24.32c0-5.92,4.89-10.42,10.29-10.42s10.29,4.5,10.29,10.42-4.89,10.29-10.29,10.29-10.29-4.5-10.29-10.29ZM616.78,42.47h18.79v66.91h-18.79V42.47Z"/><path d="M681.76,56.75c-7.85,0-14.03,4.5-14.03,14.67v37.96h-18.79V42.47h18.79v14.03h.77c1.16-6.31,7.59-15.31,21.36-15.31,13,0,23.03,8.36,23.03,25.74v42.46h-18.79v-37.96c0-10.17-4.5-14.67-12.35-14.67Z"/><path d="M731.82,89.31v-32.3h-11.32v-14.54h11.32v-17.24h18.79v17.24h13.25v14.54h-13.25v29.6c0,5.15,1.54,8.62,8.49,8.62,1.42,0,2.57,0,5.28-.26v14.03c-2.96.77-6.56,1.29-10.29,1.29-13.38,0-22.26-6.05-22.26-20.97Z"/></svg>