<?xml version="1.0" encoding="UTF-8"?><svg id="uuid-d5aa45ea-3a95-446b-8ffc-607a3d43ede4" xmlns="http://www.w3.org/2000/svg" viewBox="0 0 291.69 384.25"><defs><style>.uuid-786d6786-05d7-4b59-abb9-5714c7c2f0b6{fill:none;stroke:#2973a8;stroke-linecap:round;stroke-miterlimit:10;stroke-width:11px;}.uuid-cc1d643a-e815-481d-b613-50060958f55c{fill:#2973a8;}</style></defs><path class="uuid-cc1d643a-e815-481d-b613-50060958f55c" d="M243.86,251.76c47.84,1.91,44.49-7.89,44.45,22.96,0,4.33-6.65,2.69-7.47,3.53-1.03,1.08-1.89,26.47-.98,27.51.5.57,10.25-.81,11.07,8.51.92,10.42-10.69,11.05-11.14,12.12-.49,1.17-.66,24.32.12,25.32.51.65,11.48.04,11.63,9.7.13,8.1,1.36,18.96-6.32,19.88-34.12,4.13-147.86,3.57-184.91.5-5.41-.45-18.99-.26-21.54-4.46-5.69-9.38,1.73-50.05-2.2-62.8-6.26-20.3-44.42-69.7-56.58-95.42C-5.86,164.41-9.78,110.6,27.05,59.46c97.77-135.75,314.1-19.85,236.67,154.67-2.13,4.8-21.98,37.55-19.85,37.64ZM137.68,42.06c-129.39,3.53-129.07,203.03,5.72,198.75,132.29-4.21,125.6-202.33-5.72-198.75ZM265.58,364.24c.21-3.03.19-1.85.34-4.91.32-6.25.18-81.73-1.01-87.11-.29-1.33.14-2.81-1.69-3.31l-97.6-2.89c-7.32,6.72-68.32,39.4-69.75,43.25s0,45.77,0,54"/><path class="uuid-cc1d643a-e815-481d-b613-50060958f55c" d="M70.29,136.17c2.7-4.84,13.25-14.83,19.62-12.96,5.21,1.53,29.57,30.86,33.31,30.47,4.64-.49,57.47-59.18,66.25-65.81,8.8-5.17,30.89,16.52,19.92,24.92-14.41,9.28-74.47,79.46-84.24,81.76-2.89.68-5.1.49-7.84-.73-3.1-1.38-47.13-44.39-48.49-47.49-2.29-5.22-.81-6.08,1.48-10.16Z"/><line class="uuid-786d6786-05d7-4b59-abb9-5714c7c2f0b6" x1="162.12" y1="300.74" x2="233.19" y2="302.16"/><line class="uuid-786d6786-05d7-4b59-abb9-5714c7c2f0b6" x1="126.69" y1="331.02" x2="233.3" y2="333.15"/></svg>