<?xml version="1.0" encoding="UTF-8"?><svg id="uuid-e9cc67f7-ea8a-4b20-b23f-65330e1ae167" xmlns="http://www.w3.org/2000/svg" viewBox="0 0 778.76 384.25"><defs><style>.uuid-ab35194c-7058-44a5-a7c9-813c353feb4a{fill:none;stroke:#000;stroke-linecap:round;stroke-miterlimit:10;stroke-width:11px;}</style></defs><path d="M243.86,251.76c47.84,1.91,44.49-7.89,44.45,22.96,0,4.33-6.65,2.69-7.47,3.53-1.03,1.08-1.89,26.47-.98,27.51.5.57,10.25-.81,11.07,8.51.92,10.42-10.69,11.05-11.14,12.12-.49,1.17-.66,24.32.12,25.32.51.65,11.48.04,11.63,9.7.13,8.1,1.36,18.96-6.32,19.88-34.12,4.13-147.86,3.57-184.91.5-5.41-.45-18.99-.26-21.54-4.46-5.69-9.38,1.73-50.05-2.2-62.8-6.26-20.3-44.42-69.7-56.58-95.42C-5.86,164.41-9.78,110.6,27.05,59.46c97.77-135.75,314.1-19.85,236.67,154.67-2.13,4.8-21.98,37.55-19.85,37.64ZM137.68,42.06c-129.39,3.53-129.07,203.03,5.72,198.75,132.29-4.21,125.6-202.33-5.72-198.75ZM265.58,364.24c.21-3.03.19-1.85.34-4.91.32-6.25.18-81.73-1.01-87.11-.29-1.33.14-2.81-1.69-3.31l-97.6-2.89c-7.32,6.72-68.32,39.4-69.75,43.25s0,45.77,0,54"/><path d="M70.29,136.17c2.7-4.84,13.25-14.83,19.62-12.96,5.21,1.53,29.57,30.86,33.31,30.47,4.64-.49,57.47-59.18,66.25-65.81,8.8-5.17,30.89,16.52,19.92,24.92-14.41,9.28-74.47,79.46-84.24,81.76-2.89.68-5.1.49-7.84-.73-3.1-1.38-47.13-44.39-48.49-47.49-2.29-5.22-.81-6.08,1.48-10.16Z"/><path d="M327.85,114.64h36.42c23.93,0,34.36,12.48,34.36,30.11,0,12.74-5.53,23.03-18.02,27.54l18.92,32.43h-19.04l-17.11-29.98h-16.21v29.98h-19.3v-90.07ZM378.81,144.75c0-8.11-4.63-13.38-15.18-13.38h-16.47v26.64h16.47c10.55,0,15.18-5.28,15.18-13.25Z"/><path d="M405.83,171.13c0-24.96,15.83-34.61,33.58-34.61s31.78,9.01,31.78,34.36c0,2.44-.13,3.73-.39,5.15h-47.1c1.03,11.19,6.82,15.7,16.08,15.7,8.62,0,12.35-3.47,13.9-8.88h16.6c-3.35,15.31-15.18,23.16-30.75,23.16-16.99,0-33.71-9.39-33.71-34.87ZM453.44,164.96c-.26-7.72-4.25-14.15-14.54-14.15-8.75,0-13.9,4.89-15.18,14.15h29.72Z"/><path d="M477.51,114.64h20.2l24.19,70.39h1.16l24.19-70.39h20.2l-32.56,90.07h-24.83l-32.56-90.07Z"/><path d="M576.08,119.66c0-5.92,4.89-10.42,10.29-10.42s10.29,4.5,10.29,10.42-4.89,10.29-10.29,10.29-10.29-4.5-10.29-10.29ZM576.98,137.8h18.79v66.91h-18.79v-66.91Z"/><path d="M605.94,171.13c0-24.96,15.83-34.61,33.58-34.61s31.78,9.01,31.78,34.36c0,2.44-.13,3.73-.39,5.15h-47.1c1.03,11.19,6.82,15.7,16.08,15.7,8.62,0,12.35-3.47,13.9-8.88h16.6c-3.35,15.31-15.18,23.16-30.75,23.16-16.99,0-33.71-9.39-33.71-34.87ZM653.55,164.96c-.26-7.72-4.25-14.15-14.54-14.15-8.75,0-13.9,4.89-15.18,14.15h29.72Z"/><path d="M674.4,137.8h17.76l11.45,48.77h.51l13.25-48.77h16.21l13.25,48.77h.51l11.45-48.77h17.76l-17.89,66.91h-20.97l-12.22-41.95-12.1,41.95h-21.1l-17.89-66.91Z"/><path d="M327.85,241.64h36.42c23.93,0,34.36,12.48,34.36,30.11s-10.42,29.98-34.36,29.98h-17.11v29.98h-19.3v-90.07ZM378.81,271.75c0-8.11-4.63-13.38-15.18-13.38h-16.47v26.64h16.47c10.55,0,15.18-5.28,15.18-13.25Z"/><path d="M403,298.26c0-24.32,16.73-34.74,33.58-34.74s33.58,10.42,33.58,34.74-16.73,34.74-33.58,34.74-33.58-10.42-33.58-34.74ZM452.54,298.26c0-13.25-6.95-19.17-15.96-19.17s-15.96,5.92-15.96,19.17,6.95,19.17,15.96,19.17,15.96-5.92,15.96-19.17Z"/><path d="M479.44,246.66c0-5.92,4.89-10.42,10.29-10.42s10.29,4.5,10.29,10.42-4.89,10.29-10.29,10.29-10.29-4.5-10.29-10.29ZM480.34,264.8h18.79v66.91h-18.79v-66.91Z"/><path d="M545.33,279.09c-7.85,0-14.03,4.5-14.03,14.67v37.96h-18.79v-66.91h18.79v14.03h.77c1.16-6.3,7.59-15.31,21.36-15.31,13,0,23.03,8.36,23.03,25.74v42.46h-18.79v-37.96c0-10.17-4.5-14.67-12.35-14.67Z"/><path d="M595.38,311.64v-32.3h-11.32v-14.54h11.32v-17.24h18.79v17.24h13.25v14.54h-13.25v29.6c0,5.15,1.54,8.62,8.49,8.62,1.42,0,2.57,0,5.28-.26v14.03c-2.96.77-6.56,1.29-10.29,1.29-13.38,0-22.26-6.05-22.26-20.97Z"/><line class="uuid-ab35194c-7058-44a5-a7c9-813c353feb4a" x1="162.12" y1="300.74" x2="233.19" y2="302.16"/><line class="uuid-ab35194c-7058-44a5-a7c9-813c353feb4a" x1="126.69" y1="331.02" x2="233.3" y2="333.15"/></svg>