<?xml version="1.0" encoding="UTF-8"?><svg id="uuid-b51bd48f-a2fe-4054-8b32-063d73b304a7" xmlns="http://www.w3.org/2000/svg" viewBox="0 0 832 440"><defs><style>.uuid-07317530-6dbf-4806-a709-878aef3237d7{stroke-linecap:round;stroke-width:11px;}.uuid-07317530-6dbf-4806-a709-878aef3237d7,.uuid-6f3723f8-44f2-4328-a596-3cbcc90fa19f{stroke:#000;stroke-miterlimit:10;}</style></defs><path class="uuid-6f3723f8-44f2-4328-a596-3cbcc90fa19f" d="M258.7,278.99c47.84,1.91,44.49-7.89,44.45,22.96,0,4.33-6.65,2.69-7.47,3.53-1.03,1.08-1.89,26.47-.98,27.51.5.57,10.25-.81,11.07,8.51.92,10.42-10.69,11.05-11.14,12.12-.49,1.17-.66,24.32.12,25.32.51.65,11.48.04,11.63,9.7.13,8.1,1.36,18.96-6.32,19.88-34.12,4.13-147.86,3.57-184.91.5-5.41-.45-18.99-.26-21.54-4.46-5.69-9.38,1.73-50.05-2.2-62.8-6.26-20.3-44.42-69.7-56.58-95.42-25.87-54.71-29.78-108.52,7.05-159.66,97.77-135.75,314.1-19.85,236.67,154.67-2.13,4.8-21.98,37.55-19.85,37.64ZM152.52,69.29c-129.39,3.53-129.07,203.03,5.72,198.75,132.29-4.21,125.6-202.33-5.72-198.75ZM280.42,391.47c.21-3.03.19-1.85.34-4.91.32-6.25.18-81.73-1.01-87.11-.29-1.33.14-2.81-1.69-3.31l-97.6-2.89c-7.32,6.72-68.32,39.4-69.75,43.25s0,45.77,0,54"/><path class="uuid-6f3723f8-44f2-4328-a596-3cbcc90fa19f" d="M85.13,163.4c2.7-4.84,13.25-14.83,19.62-12.96,5.21,1.53,29.57,30.86,33.31,30.47,4.64-.49,57.47-59.18,66.25-65.81,8.8-5.17,30.89,16.52,19.92,24.92-14.41,9.28-74.47,79.46-84.24,81.76-2.89.68-5.1.49-7.84-.73-3.1-1.38-47.13-44.39-48.49-47.49-2.29-5.22-.81-6.08,1.48-10.16Z"/><line class="uuid-07317530-6dbf-4806-a709-878aef3237d7" x1="176.96" y1="327.97" x2="248.03" y2="329.39"/><line class="uuid-07317530-6dbf-4806-a709-878aef3237d7" x1="141.53" y1="358.25" x2="248.14" y2="360.38"/></svg>